<svg width="60" height="15" viewBox="0 0 60 15" fill="none" xmlns="http://www.w3.org/2000/svg">
<mask id="mask0_23_807" style="mask-type:luminance" maskUnits="userSpaceOnUse" x="11" y="0" width="13" height="15">
<path d="M14.7841 11.802L15.5999 8.27014H16.6943C18.2363 8.27014 19.5198 8.69795 19.4899 10.1405C19.4501 11.7523 17.7986 12.4089 15.9978 12.4089H15.1721C14.6746 12.3293 14.7841 11.802 14.7841 11.802ZM22.972 10.2002C23.0715 8.59845 21.8577 7.20561 20.256 7.07628C21.7981 6.82755 23.8177 5.69338 23.8177 3.62401C23.8177 1.41536 21.5891 0.231445 18.2363 0.231445C16.7938 0.231445 15.3412 0.340883 13.9086 0.579656L11.5009 11.225C11.5009 11.225 10.6752 13.9808 13.0331 14.5479C13.64 14.7071 14.2767 14.7966 14.9035 14.8066C21.1514 15.1548 22.972 12.3392 22.972 10.2002ZM16.8535 2.68882C17.331 2.62913 17.8085 2.60923 18.296 2.60923C19.5496 2.60923 20.445 3.05693 20.4251 4.08166C20.3953 5.33522 19.1317 6.03164 17.3012 6.03164H16.5948C16.0774 6.03164 16.2267 5.43471 16.2267 5.43471L16.8535 2.68882Z" fill="white"/>
</mask>
<g mask="url(#mask0_23_807)">
<path d="M26.1557 -2.11597H9.03363V17.1749H26.1557V-2.11597Z" fill="#00498C"/>
</g>
<mask id="mask1_23_807" style="mask-type:luminance" maskUnits="userSpaceOnUse" x="36" y="0" width="14" height="15">
<path d="M38.3031 14.8458C38.8105 14.8458 39.7656 14.6468 40.1039 13.1844C40.3626 12.0203 40.8003 10.0604 40.8003 10.0604C41.1386 10.0604 41.6161 10.1499 42.1633 10.1499C47.5357 10.1499 49.3961 6.69769 49.3961 4.3597C49.3961 1.80283 47.6153 0.330398 43.7352 0.3105C42.3026 0.240858 40.8699 0.350296 39.4572 0.618916L36.3034 14.8458H38.3031ZM42.611 2.78777C43.0687 2.73803 43.5363 2.70818 44.0038 2.71813C45.2574 2.71813 46.2921 3.08624 46.2921 4.58852C46.2921 6.0908 45.1281 7.58314 42.8796 7.60303H42.4518C41.437 7.60303 41.7256 6.75738 41.7256 6.75738L42.611 2.78777Z" fill="white"/>
</mask>
<g mask="url(#mask1_23_807)">
<path d="M51.7344 -2.04712H33.9756V17.1841H51.7344V-2.04712Z" fill="#00498C"/>
</g>
<mask id="mask2_23_807" style="mask-type:luminance" maskUnits="userSpaceOnUse" x="24" y="0" width="14" height="15">
<path d="M28.434 8.56599C28.434 6.25785 29.9363 2.80559 33.3687 2.80559C34.274 2.80559 35.8658 3.03441 36.811 3.87012C36.811 3.87012 37.1592 2.6862 37.2587 2.20865C37.3582 1.72116 37.1791 0.955093 35.6967 0.457648C34.8113 0.149232 33.8761 0 32.9409 0C27.5685 0 24.7728 4.41731 24.7728 8.74508C24.7728 13.3912 27.8968 14.993 31.0705 14.993C31.9659 15.0328 32.8613 14.9034 33.7069 14.605C34.2143 14.4358 34.6023 14.018 34.7416 13.5006L35.2689 11.1129C34.3437 11.869 33.1796 12.2769 31.9957 12.257C29.7572 12.257 28.4539 10.8144 28.4539 8.57594" fill="white"/>
</mask>
<g mask="url(#mask2_23_807)">
<path d="M39.6164 -2.35181H22.4446V17.3072H39.6164V-2.35181Z" fill="#00498C"/>
</g>
<mask id="mask3_23_807" style="mask-type:luminance" maskUnits="userSpaceOnUse" x="1" y="1" width="6" height="6">
<path d="M5.07373 1.33613C3.85001 0.759096 2.48701 2.39071 2.40742 2.48025C2.08906 2.88816 1.82044 3.33586 1.60156 3.81341L2.29799 4.17156C3.58139 4.79834 4.74541 5.6639 5.71046 6.71848C6.53622 4.67896 6.40688 1.93307 5.07373 1.33613Z" fill="white"/>
</mask>
<g mask="url(#mask3_23_807)">
<path d="M8.56583 -1.11987H-0.72644V9.0479H8.56583V-1.11987Z" fill="#00498C"/>
</g>
<mask id="mask4_23_807" style="mask-type:luminance" maskUnits="userSpaceOnUse" x="0" y="1" width="11" height="13">
<path d="M9.83946 8.7865C8.5461 10.8658 5.0043 13.2237 4.00941 13.5719C2.81554 14.0793 1.43264 13.7311 0.626781 12.7163C0.378058 12.4377 0.17908 12.1393 0 11.811C7.93922 8.21941 6.59612 2.04115 5.09384 1.34473C6.04893 1.84217 6.93438 2.44905 7.74024 3.15543C8.42672 3.76231 9.0535 4.42888 9.61063 5.1452C10.4563 6.17989 10.5458 7.65233 9.83946 8.7865Z" fill="white"/>
</mask>
<g mask="url(#mask4_23_807)">
<path d="M12.6751 -0.991699H-2.33777V16.1502H12.6751V-0.991699Z" fill="#FF7800"/>
</g>
<mask id="mask5_23_807" style="mask-type:luminance" maskUnits="userSpaceOnUse" x="50" y="1" width="6" height="6">
<path d="M55.0969 6.71439C55.9326 4.67487 55.7934 1.93892 54.4702 1.34199C53.2464 0.764956 51.8635 2.39657 51.8138 2.48611C51.4954 2.89402 51.2169 3.34172 50.998 3.81926L51.6944 4.17742C52.9878 4.79426 54.1418 5.65981 55.0969 6.71439Z" fill="white"/>
</mask>
<g mask="url(#mask5_23_807)">
<path d="M57.9521 -1.125H48.6598V9.04277H57.9521V-1.125Z" fill="#00498C"/>
</g>
<mask id="mask6_23_807" style="mask-type:luminance" maskUnits="userSpaceOnUse" x="49" y="1" width="11" height="13">
<path d="M53.3957 13.5719C52.2018 14.0694 50.8289 13.7211 50.0131 12.7163C49.7743 12.4377 49.5654 12.1393 49.3863 11.811C57.3255 8.21941 55.9725 2.04115 54.4702 1.34473C55.4253 1.84217 56.3107 2.44905 57.1166 3.15542C57.8031 3.76231 58.4298 4.42888 58.987 5.1452C59.8326 6.18984 59.9122 7.65232 59.1959 8.7865C57.9324 10.8559 54.4005 13.2237 53.3957 13.5719Z" fill="white"/>
</mask>
<g mask="url(#mask6_23_807)">
<path d="M62.0615 -0.991699H47.0486V16.1502H62.0615V-0.991699Z" fill="#FF7800"/>
</g>
</svg>
