<svg width="30" height="35" viewBox="0 0 30 35" fill="none" xmlns="http://www.w3.org/2000/svg">
<g clip-path="url(#clip0_1186_1364)">
<mask id="mask0_1186_1364" style="mask-type:luminance" maskUnits="userSpaceOnUse" x="0" y="0" width="30" height="35">
<path d="M29.3244 0.429688H0.572876V34.9315H29.3244V0.429688Z" fill="white"/>
</mask>
<g mask="url(#mask0_1186_1364)">
<path d="M14.7341 17.0488C17.0143 17.0488 18.9917 16.2318 20.6072 14.6145C22.2228 12.9972 23.0389 11.0262 23.0389 8.73505C23.0389 6.45234 22.2228 4.47287 20.6072 2.8556C18.9917 1.24675 17.0143 0.429688 14.7341 0.429688C12.4538 0.429688 10.4765 1.24675 8.86092 2.86402C7.24538 4.48129 6.4292 6.45234 6.4292 8.73505C6.4292 11.0178 7.24538 12.9972 8.86092 14.6145C10.4765 16.2318 12.4538 17.0488 14.7341 17.0488ZM10.2913 4.29598C11.5282 3.05776 12.9839 2.45128 14.7341 2.45128C16.4842 2.45128 17.9399 3.05776 19.1768 4.29598C20.4137 5.5342 21.0195 6.99143 21.0195 8.74348C21.0195 10.4955 20.4137 11.9528 19.1768 13.191C17.9399 14.4292 16.4842 15.0357 14.7341 15.0357C12.9839 15.0357 11.5282 14.4292 10.2913 13.191C9.05445 11.9528 8.44862 10.4955 8.44862 8.74348C8.44862 6.99143 9.05445 5.5342 10.2913 4.29598Z" fill="#F3F4F4"/>
</g>
<mask id="mask1_1186_1364" style="mask-type:luminance" maskUnits="userSpaceOnUse" x="0" y="0" width="30" height="35">
<path d="M29.3244 0.429688H0.572876V34.9315H29.3244V0.429688Z" fill="white"/>
</mask>
<g mask="url(#mask1_1186_1364)">
<path d="M29.2571 26.9629C29.2066 26.2891 29.114 25.5562 28.9794 24.7813C28.8364 23.9979 28.6597 23.2651 28.4409 22.5912C28.2137 21.8921 27.9192 21.2098 27.5406 20.5444C27.1535 19.8621 26.6991 19.264 26.1859 18.7755C25.6474 18.2617 24.991 17.8489 24.2338 17.5457C23.4765 17.2424 22.6435 17.0908 21.7431 17.0908C21.3897 17.0908 21.0532 17.234 20.3969 17.6636C19.993 17.9247 19.5218 18.2364 18.9917 18.5733C18.5373 18.8597 17.9315 19.1293 17.1742 19.3735C16.4337 19.6094 15.6849 19.7357 14.9528 19.7357C14.2124 19.7357 13.4635 19.6178 12.7315 19.3735C11.9742 19.1293 11.3684 18.8597 10.914 18.5733C10.3923 18.2364 9.92111 17.9331 9.50881 17.6636C8.8525 17.234 8.51593 17.0908 8.16253 17.0908C7.26221 17.0908 6.4292 17.2424 5.67191 17.5457C4.91463 17.8489 4.25832 18.2617 3.71981 18.7755C3.20654 19.264 2.75217 19.8621 2.36511 20.5444C1.99488 21.2014 1.69197 21.8921 1.46479 22.5912C1.24602 23.2651 1.06932 24.0063 0.926275 24.7813C0.783232 25.5562 0.690676 26.2891 0.64019 26.9629C0.598119 27.6199 0.572876 28.3106 0.572876 29.0014C0.572876 30.8039 1.14505 32.2612 2.27256 33.3394C3.38324 34.4007 4.86415 34.9398 6.65638 34.9398H23.2493C25.0415 34.9398 26.514 34.4007 27.6331 33.3394C28.7606 32.2612 29.3328 30.8039 29.3328 29.0014C29.3244 28.3022 29.2991 27.6199 29.2571 26.9629ZM26.2363 31.8653C25.5043 32.5644 24.5198 32.9098 23.2493 32.9098H6.65638C5.38583 32.9098 4.40136 32.5728 3.66932 31.8653C2.9457 31.1746 2.5923 30.2396 2.5923 28.9929C2.5923 28.3443 2.61754 27.7042 2.65961 27.0977C2.70168 26.4996 2.78582 25.8342 2.91204 25.1351C3.03825 24.4444 3.19812 23.7873 3.38324 23.2061C3.55994 22.6418 3.81236 22.0858 4.11528 21.5467C4.40978 21.0329 4.74635 20.5949 5.11657 20.2411C5.46156 19.9126 5.8991 19.6347 6.41237 19.4325C6.89198 19.2472 7.42208 19.1377 8.00266 19.1293C8.06998 19.163 8.19619 19.2388 8.40655 19.3735C8.81884 19.6431 9.29846 19.9547 9.82856 20.2917C10.426 20.6707 11.1917 21.0161 12.1088 21.3109C13.0512 21.6141 14.002 21.7657 14.9528 21.7657C15.9036 21.7657 16.8629 21.6141 17.7969 21.3109C18.714 21.0161 19.4797 20.6707 20.0771 20.2917C20.6156 19.9463 21.0868 19.6431 21.4991 19.3735C21.7011 19.2388 21.8273 19.1714 21.903 19.1293C22.4836 19.1461 23.0221 19.2472 23.4933 19.4325C24.0066 19.6347 24.4441 19.9042 24.7891 20.2411C25.1593 20.5949 25.4959 21.0329 25.7904 21.5467C26.0933 22.0858 26.3457 22.6418 26.5224 23.2061C26.7075 23.7958 26.8674 24.4444 26.9936 25.1351C27.1198 25.8342 27.204 26.4996 27.2461 27.0977C27.2881 27.7042 27.3134 28.3443 27.3134 28.9929C27.305 30.2396 26.96 31.183 26.2363 31.8653Z" fill="#F3F4F4"/>
</g>
</g>
<defs>
<clipPath id="clip0_1186_1364">
<rect width="28.7515" height="34.5018" fill="white" transform="translate(0.572876 0.429688)"/>
</clipPath>
</defs>
</svg>
